<svg xmlns="http://www.w3.org/2000/svg" viewBox="0 0 24 24" fill="currentColor">
  <path d="M12 .5C5.73.5.5 5.73.5 12c0 5.08 3.29 9.38 7.86 10.9.58.1.79-.25.79-.56 0-.28-.01-1.02-.02-2-3.2.7-3.88-1.54-3.88-1.54-.53-1.36-1.3-1.72-1.3-1.72-1.06-.72.08-.71.08-.71 1.17.08 1.78 1.2 1.78 1.2 1.04 1.78 2.73 1.27 3.4.97.11-.76.41-1.27.75-1.56-2.56-.29-5.26-1.28-5.26-5.7 0-1.26.45-2.29 1.19-3.1-.12-.29-.52-1.46.11-3.05 0 0 .97-.31 3.18 1.18A11.05 11.05 0 0112 6.8c.98.01 1.97.13 2.89.38 2.2-1.5 3.17-1.18 3.17-1.18.63 1.59.23 2.76.11 3.05.74.81 1.19 1.84 1.19 3.1 0 4.43-2.7 5.4-5.27 5.69.42.36.79 1.07.79 2.16 0 1.56-.01 2.82-.01 3.2 0 .31.21.67.8.56A11.52 11.52 0 0023.5 12C23.5 5.73 18.27.5 12 .5z"/>
</svg>
